<svg width="149" height="64" viewBox="0 0 149 64" preserveAspectRatio="none" fill="none" xmlns="http://www.w3.org/2000/svg">
<path d="M31.0736 4.27617C29.4164 4.57515 27.739 4.91796 26.0653 5.30162C20.1532 6.6904 14.0132 8.53327 9.33086 12.3767C4.73622 16.7363 3.73433 24.4464 2.6344 30.9545C2.62619 31.0066 2.61827 31.0564 2.61058 31.1041C2.39044 32.6215 2.36234 32.5278 2.31395 32.9867C2.21947 34.2887 2.36024 35.0747 2.43352 36.0198C2.58063 37.7507 2.92902 39.4397 3.46112 41.0196C4.31511 43.5395 6.11244 45.697 8.24243 47.6129C11.8982 50.6828 10.0283 49.4309 11.3246 50.4995C13.9643 52.4965 11.8488 50.6101 12.9609 51.2834C14.8022 52.548 16.7162 53.7611 18.6233 55.0134C19.8633 55.8278 21.2428 56.4923 22.6642 57.0573C21.8032 56.7594 20.9561 56.4244 20.134 56.0366C21.5561 56.778 23.7353 57.662 21.1735 56.6988C21.716 56.9682 22.2261 57.2075 22.8044 57.4508C22.9961 57.4214 25.7667 58.3106 26.0506 58.2876C26.3248 58.2937 24.7509 57.8492 24.7672 57.8399C24.8573 57.886 31.3727 59.566 31.8784 59.5785C33.1453 59.8265 32.0043 59.7873 33.0891 59.9584C34.9628 60.2323 33.7569 59.7466 36.2393 60.5037C37.2734 60.4987 37.3496 60.5802 38.6354 60.7325C38.8049 60.7521 38.6817 60.6601 38.7565 60.6661C40.7099 60.8119 39.1969 60.8008 39.2042 60.8095C39.3729 60.9654 41.469 61.1073 41.9099 61.1545C43.921 61.3894 45.7473 61.5546 47.5242 61.7504L47.505 61.7491C50.6481 61.9575 53.6598 62.2165 57.4028 62.4582C58.6728 62.5457 62.5463 62.6855 63.7732 62.7352C64.9875 62.7923 64.3296 62.8702 64.9671 62.9316C65.9917 62.715 66.953 62.7279 69.238 62.8133C70.0721 62.6061 69.9828 62.7703 71.5879 62.5992C71.7774 62.577 71.9885 62.5472 72.2041 62.5118L72.2225 62.5102C73.5975 62.3745 75.5177 62.1458 76.8083 62.2275C75.095 62.3012 75.2767 62.3736 73.3512 62.5278C73.2133 62.5389 72.7946 62.5646 72.2277 62.601L72.2149 62.6021C70.1819 62.9014 66.1373 62.8998 66.5312 63.0344C66.7876 63.1347 69.0161 63.0239 69.0959 63.0281C69.6013 63.1073 68.3631 63.2748 67.2601 63.2333C67.5332 63.2129 67.8655 63.1902 68.1593 63.1658C65.6847 63.0619 67.3854 63.5234 65.5093 63.0999C65.2764 63.0461 65.3699 62.9961 64.9889 62.9354C64.91 62.9557 65.3759 63.0195 64.9734 63.021C64.5594 63.0228 63.784 62.8971 63.6662 62.9799C63.4852 63.1026 65.1952 63.0989 65.32 63.1054C65.3214 63.1046 65.3228 63.1039 65.3241 63.1031C66.4579 63.1904 64.0896 63.1545 63.9759 63.1577C63.2418 63.2135 63.7384 63.2918 62.6372 63.3168C62.0076 63.3316 60.412 63.2361 59.8228 63.2164C59.237 63.1984 60.1447 63.3051 59.7498 63.2976C59.3563 63.2902 58.8675 63.2185 58.4054 63.2076C58.2073 63.2031 58.2137 63.2702 58.1178 63.2671C57.0904 63.2342 57.7711 63.1345 56.8406 63.0887C56.2378 63.0592 54.2082 63.0655 55.5997 63.1883C54.9286 63.1612 54.2755 63.1312 53.6089 63.1013C54.0283 63.1466 54.4611 63.1864 54.8696 63.2346C53.6179 63.1267 53.0441 63.2061 52.2594 63.1681C51.472 63.1301 50.7803 62.953 49.9118 62.9733C48.0622 63.0154 52.6271 63.1988 53.192 63.264C53.4125 63.2873 52.5572 63.3432 52.4269 63.3387C51.8467 63.3176 51.1645 63.2013 50.7184 63.1799C49.429 63.1185 48.5393 63.1415 47.4478 63.1323L47.3998 63.1291C47.1613 63.1164 46.8708 63.0995 46.5858 63.0812C41.395 62.7947 34.8681 62.2523 29.9506 61.2587C28.1164 60.8977 27.0469 60.5056 26.2351 60.2951C24.334 59.7789 24.0694 59.7982 22.4292 59.2233C20.9164 58.6775 19.0408 57.8208 17.4865 56.778C16.6046 56.1891 15.7743 55.6424 15.1118 55.2101C13.8958 54.4194 12.7371 53.7724 12.4192 53.5619C8.09232 50.7828 2.73248 46.5134 1.24959 41.7837C1.22925 41.7249 1.20889 41.6652 1.18857 41.6046C0.521729 39.5496 0.507889 38.5139 0.418365 38.0856C0.124344 36.2146 0.101944 36.7246 0.00556946 35.1839C-0.0243225 34.3487 0.0758972 34.1911 0.0768738 34.0805C0.114944 33.1012 0.0158081 32.9002 0.0727234 32.1311C0.111633 31.6642 0.16655 31.1995 0.237503 30.7378C0.790451 27.0587 1.46594 23.4191 2.58777 19.778C2.67998 19.4822 2.72107 19.524 2.77927 19.3322C3.03584 18.5089 2.82883 18.8643 3.12558 18.0072C3.76085 16.2329 4.56662 14.4276 5.78958 12.7213C5.91209 12.5549 6.01659 12.5143 6.31371 12.1416C6.61758 11.7727 6.80498 11.4456 7.37141 10.9169C7.51857 10.7819 7.66957 10.6525 7.82445 10.5288C9.14204 9.47673 10.5867 8.58339 12.1466 7.74179C12.4343 7.58635 12.7514 7.32948 13.1937 7.11149C14.5639 6.42143 16.6823 5.65097 17.9085 5.2339C20.5246 4.32459 23.0383 3.6389 25.5512 3.04963C26.9185 2.73038 28.2851 2.43905 29.6678 2.17708C30.591 2.00216 31.4186 1.93335 31.8976 1.85437C32.9848 1.67793 32.15 1.74331 33.2516 1.56746C42.2352 0.159641 51.3647 -0.142876 60.5047 0.054409C61.7771 0.0823135 63.1233 0.114239 64.5168 0.158245C67.0449 0.237633 69.6713 0.311325 71.9046 0.410358C73.3428 0.474312 73.6004 0.580391 74.6142 0.620903C76.4267 0.693333 76.7614 0.583347 78.6738 0.648899C80.2005 0.701645 81.9447 0.898075 83.5332 0.960815C85.1222 1.02396 85.859 0.937836 87.6852 1.01128C89.1899 1.07202 91.2822 1.23343 92.9218 1.31742C96.0724 1.47912 99.2261 1.66231 102.362 1.92719C108.647 2.53001 114.784 2.7776 121.21 4.04C126.597 5.33448 132.067 6.85962 137.128 9.69082C139.777 11.2239 142.656 13.2639 144.226 16.5192C145.32 18.8939 146.083 21.3288 146.682 23.7368C146.802 24.2477 146.501 23.4953 146.929 25.1268C147.147 26.0055 147.542 27.2184 147.857 29.3069C148.322 32.8472 148.654 36.6887 147.004 40.4263C144.812 44.8682 142.683 49.5434 138.826 53.2485C135.906 56.0565 132.311 58.5684 128.457 59.9679C122.409 62.2419 115.934 62.9813 109.594 63.2768C97.2156 63.8062 85.1016 64.1406 74.354 63.3863C73.5388 63.3284 74.0035 63.0395 74.4569 62.9565C74.892 63.0141 75.327 63.082 75.7702 63.146C76.3465 62.7819 76.2658 62.8783 78.4049 62.8937C79.7336 62.9023 78.6665 62.7574 79.3806 62.7072C80.2998 62.6444 84.6075 62.4125 83.7772 62.6613C84.0384 62.6164 84.2839 62.5734 84.5474 62.5292C87.6562 62.45 90.7013 62.3373 93.7364 62.2077C94.2609 62.1851 94.288 62.1096 94.8344 62.0863C96.2815 62.0235 97.4601 62.0468 98.9543 62.0045C99.775 61.9812 99.8865 61.8921 100.954 61.8717C102.039 61.8505 101.994 61.9688 103.465 61.804C102.517 61.6823 106.746 61.6781 108.259 61.6246C108.372 61.6207 108.909 61.5695 109.543 61.5188C110.131 61.4722 110.775 61.4204 111.22 61.4071C112.187 61.3784 113.625 61.3794 115.086 61.1983C115.775 61.1123 116.167 60.9697 116.912 60.8785C117.42 60.8156 118.068 60.8258 118.714 60.7364C119.371 60.6508 120.761 60.3373 121.019 60.2836C121.932 60.1043 120.938 60.3607 121.561 60.2432C124.618 59.6689 128.104 58.6549 130.781 57.2104C131.103 57.0378 130.619 57.2029 130.661 57.1781C132.833 55.9031 131.688 56.6207 132.317 56.3411C132.987 56.1618 136.753 53.0892 136.654 52.9029C136.845 52.9223 137.409 52.3059 137.699 52.0071C137.742 51.962 137.779 51.9242 137.806 51.898C138.548 51.1491 138.507 51.3922 139.156 50.5744C139.388 50.2703 138.838 50.7791 139.103 50.467C139.752 49.6899 140.425 49.0328 141.187 47.8787C141.369 47.5999 141.371 47.4725 141.681 46.9667C142.003 46.4699 143.286 44.3198 142.601 45.2595C143.431 43.9851 143.517 43.6823 144.312 42.1002C144.512 41.6985 144.867 41.2279 145.247 40.3479C145.363 40.0792 145.292 40.0214 145.431 39.6861C145.444 39.6545 145.459 39.62 145.476 39.582C145.888 38.6498 146.26 37.695 146.434 36.3384C146.747 33.782 146.422 30.9912 145.981 28.3042C145.856 27.5725 146.001 27.7347 145.783 26.6731C145.753 26.5163 145.377 25.265 145.193 24.5401C145.098 24.0996 144.506 21.844 144.35 21.3966C144.112 20.6525 143.965 20.5594 143.842 20.1515C143.468 18.9787 143.968 19.8421 143.226 18.5461C143.169 18.1562 142.911 17.5453 142.824 17.188C142.804 17.105 142.792 17.0328 142.793 16.9757C142.432 16.6144 142.252 15.9866 141.611 15.2673C140.965 14.5494 140.184 14.2507 140.233 13.8511C139.897 13.5555 138.332 12.4416 138.049 12.2845C137.241 11.7682 137.723 11.9736 137.098 11.6001C136.985 11.5365 137.076 11.6528 136.368 11.2388C135.933 10.9158 132.346 9.24524 132.109 9.18795C129.627 8.10314 133.508 9.66391 134.048 9.88989C134.134 9.9492 134.22 10.0088 134.312 10.0716C135.371 10.6173 134.826 10.1944 134.348 9.93103C133.872 9.66607 132.917 9.31496 132.516 9.1017C132.316 8.99525 132.51 8.88975 133.132 9.17774C132.478 8.84262 133.42 9.18583 133.173 9.0274C132.911 8.82515 129.828 7.63483 129.773 7.73684C130.355 7.94258 131.075 8.20379 131.654 8.43435C132.346 8.8804 129.879 8.47155 127.799 7.59984C126.28 6.97213 128.909 7.60902 125.146 6.65639C125.716 6.82174 126.198 6.97631 126.717 7.13831C126.736 7.26873 125.934 6.8934 125.485 6.80763C125.269 6.76541 126.539 7.2159 125.41 6.9236C124.491 6.48874 123.7 6.4508 122.072 6.04961C122.53 6.13082 122.994 6.21618 123.453 6.30357C120.73 5.47964 127.142 7.07276 121.794 5.64491C122.45 5.79883 123.081 5.95885 123.738 6.12156C123.438 5.97826 123.99 5.93115 123.717 5.81956C123.004 5.5269 121.89 5.31428 120.987 5.09177C120.978 5.08961 120.97 5.08752 120.962 5.08547C120.602 4.99594 120.848 5.00411 120.815 4.99621C120.267 4.86833 120.373 4.9668 119.889 4.87637C119.283 4.75536 117.53 4.42979 117.241 4.40517C116.498 4.32937 117.706 4.63268 117.638 4.63607C117.157 4.63906 116.204 4.4637 116.24 4.56078C117.437 4.66637 119.762 5.00042 120.905 5.32624C121.701 5.54012 121.951 5.63818 120.88 5.43077C120.495 5.35717 119.936 5.25435 119.158 5.14251C120.766 5.59983 120.264 5.65981 117.907 5.3203C115.941 5.06733 117.218 5.15664 116.204 4.93808C116.072 4.90472 113.428 4.5699 113.281 4.62247C113.406 4.48819 112.548 4.26967 113.149 4.1798C113.232 4.16559 114.324 4.28988 113.957 4.12904C113.777 4.04841 113.238 3.8589 113.337 3.79119C113.111 3.82198 112.858 3.85707 112.631 3.89067C110.988 3.74122 110.768 3.66369 109.875 3.47676C109.909 3.52225 110.722 3.77692 109.474 3.60414C109.412 3.59509 109.35 3.52545 108.724 3.43507C107.438 3.25166 107.17 3.20766 108.177 3.11423C105.523 2.97341 104.965 2.7238 102.308 2.53726C102.267 2.53442 102.225 2.53161 102.183 2.52882C102.221 2.54963 102.261 2.56907 102.303 2.58728C102.869 2.82182 103.858 2.85499 106.197 3.02534C106.299 3.09184 106.345 3.1525 106.45 3.21979C103.126 2.78786 104.771 2.95085 102.869 2.8955C102.761 2.8924 102.543 2.87635 102.279 2.85611C101.433 2.79049 100.113 2.69793 100.741 2.87185C100.902 2.91621 102.043 3.01412 102.26 3.07111C102.301 3.08126 102.313 3.08989 102.285 3.09643C102.283 3.09694 102.273 3.09687 102.258 3.09629C102.036 3.08679 100.37 2.97349 100.218 2.94884C98.1604 2.60752 101.88 2.72803 96.1629 2.40976C96.0072 2.40192 95.9487 2.46788 95.6414 2.45839C95.061 2.44052 95.058 2.35964 94.5433 2.34739C94.0228 2.33497 93.306 2.40187 92.5332 2.2585C91.1256 1.99785 94.4803 2.07645 95.9636 2.27037C96.5868 2.0461 85.9272 1.4698 85.2649 1.47894C82.379 1.43685 87.1761 1.60341 87.4228 1.68407C87.5245 1.71716 87.4537 2.06829 88.6809 1.89834C89.0439 1.8479 87.5457 1.68406 88.4445 1.69062C89.3415 1.69746 88.9808 1.7843 89.0456 1.79478C89.2683 1.83078 90.2242 1.84089 90.3448 1.86216C92.236 2.18766 92.045 2.51556 89.5499 1.8841C88.4446 1.94149 90.9565 2.25061 89.5886 2.25779C87.9261 2.26694 86.7233 2.04903 86.5141 2.03173C84.0198 1.82975 86.8897 2.19744 83.8413 1.98393C82.1444 1.86673 86.3912 1.9393 82.5098 1.7835C79.26 1.65734 81.0113 1.81503 80.7674 1.99149C80.7098 2.03286 78.928 2.01144 81.3522 2.09447C81.4226 2.04873 81.5546 1.99013 81.7105 1.95185C82.3036 2.01274 83.2843 2.29961 83.599 2.32218C85.1396 2.43148 85.0689 2.30216 85.9727 2.49305C85.3312 2.30011 86.3821 2.44712 86.7807 2.43173C88.2605 2.37636 86.3295 2.23283 89.628 2.56064C89.1998 2.46231 88.8153 2.36797 88.4021 2.27137C88.7987 2.28831 89.1938 2.3054 89.5921 2.32306C90.1709 2.52037 92.2836 2.61104 90.3644 2.67941C92.6568 2.84763 93.5824 2.86736 94.0922 2.76562C94.1896 2.74632 94.5368 2.75673 94.9377 2.77866C94.8642 2.73732 94.7737 2.61792 94.8379 2.60783C95.4171 2.51964 96.2858 2.7872 95.9802 2.8489C96.2578 2.87033 96.4891 2.88986 96.5667 2.89687C97.0683 2.94204 96.0778 2.9511 96.4841 3.00253C96.6181 3.01859 98.0313 3.09761 98.0544 3.12979C98.2144 3.33616 95.8973 3.01964 100.55 3.4797C100.67 3.31294 98.5123 3.18877 99.0794 3.04673C99.6901 2.89195 100.892 3.25333 101.173 3.03372C101.267 3.08166 101.305 3.11821 101.389 3.17093C101.739 3.18109 102.018 3.19647 102.247 3.21524C103.317 3.30334 103.39 3.4528 103.866 3.53229C104.974 3.71797 110.107 4.17706 105.513 3.57975C106.198 3.62445 106.883 3.67905 107.554 3.72565C107.674 4.10219 107.283 3.91584 110.505 4.27892C111.216 4.36008 111.435 4.54181 112.144 4.42218C112.04 4.59712 114.142 4.70044 114.339 4.74692C115.582 5.02379 110.886 4.73858 110.326 4.3629C109.517 4.41386 109.54 4.24609 108.66 4.18591C107.384 4.09922 107.201 4.11537 105.702 3.85309C104.2 3.8903 111.521 4.46872 107.066 4.28999C106.171 4.25412 104.453 4.13982 102.179 3.97509C93.1425 3.30641 75.5286 2.78459 70.6824 2.61616C68.406 2.54197 66.3362 2.47531 64.4279 2.41106C57.1713 2.19653 51.9613 2.18053 44.2379 2.67183C43.2732 2.68369 36.0505 3.47617 37.5261 3.12217C37.7379 3.06041 40.8434 2.64007 38.1534 2.77964C38.7072 2.80931 37.1435 3.05522 37.0159 3.08392C34.0354 3.71953 35.7784 3.47827 31.0736 4.27617ZM16.8344 6.12684C22.8581 4.08274 18.3985 5.47971 19.5576 4.76114C18.775 5.00832 18.002 5.26975 17.2257 5.55431C17.4327 5.49868 17.643 5.44329 17.8535 5.38932C17.8544 5.38902 17.8552 5.38871 17.8561 5.3884C17.5092 5.63155 17.1703 5.877 16.8344 6.12684ZM56.6697 63.448C56.422 63.4739 56.1769 63.4998 55.9087 63.5233C55.0786 63.4609 54.2525 63.398 53.4233 63.3353C53.5239 63.3139 53.6214 63.292 53.7223 63.2707C54.7035 63.3313 55.6829 63.3926 56.6697 63.448ZM96.8471 2.28271C98.0132 2.47316 97.9243 2.26435 99.477 2.46962C99.295 2.30777 99.0983 2.1483 98.9058 1.98763C97.7091 1.92423 97.4413 1.9625 96.1446 1.84288C96.29 1.89972 96.4455 1.9576 96.5894 2.01484C96.8064 2.01867 97.0354 2.0221 97.2421 2.02684C97.5677 2.181 95.4971 2.06617 96.843 2.28275C96.8443 2.28273 96.8457 2.28272 96.8471 2.28271ZM108.886 3.23729C109.516 3.31435 112.007 3.62834 112.352 3.60332C113.53 3.50673 106.467 2.95534 111.68 3.27456C111.659 3.24318 111.686 3.21716 111.688 3.18846C110.741 3.08467 109.798 2.98581 108.844 2.88801C108.884 3.00718 108.84 3.11692 108.886 3.23729ZM39.1736 1.2799C40.1427 1.16947 44.7863 0.704731 43.259 0.693951C42.8081 0.685654 40.7472 1.0506 39.9646 1.12581C39.4519 1.17305 40.0118 1.01011 39.0113 1.1543C39.0604 1.19473 39.0932 1.24189 39.1763 1.2793C39.1754 1.2795 39.1745 1.2797 39.1736 1.2799ZM37.4245 2.0836C38.4206 1.9439 39.4329 1.81001 40.4391 1.69252C39.6928 1.64452 38.2511 1.88039 38.148 1.72743C38.4212 1.68329 38.6962 1.63995 38.9701 1.59758C39.1839 1.6107 39.3953 1.62464 39.6075 1.63898C40.4697 1.46217 39.9333 1.46524 41.5533 1.343C40.5574 1.18659 40.3507 1.04953 37.6183 1.61974C38.1266 1.42487 37.5764 1.03591 36.0834 1.54914C35.8039 1.64439 37.0083 1.52761 37.0212 1.53684C37.2186 1.62901 36.5675 1.78542 36.7776 1.86947C36.8707 1.90707 37.5991 1.81672 37.718 1.87246C37.7717 1.8995 37.0893 2.07883 37.4245 2.0836ZM35.3559 1.75924C35.6563 1.64705 34.574 1.62579 33.6573 1.80157C32.2321 2.07682 34.518 1.87738 35.3559 1.75924ZM56.6752 63.4482C56.6734 63.4481 56.6716 63.4481 56.6697 63.448C56.6707 63.4479 56.6716 63.4478 56.6725 63.4477C56.6734 63.4479 56.6743 63.4481 56.6752 63.4482ZM105.639 2.85592C106.392 2.86423 107.489 2.97418 107.413 2.87179C107.781 2.92452 108.135 2.97583 108.499 3.02855C108.498 2.99979 108.494 2.97065 108.493 2.94218C107.408 2.82294 106.328 2.70606 105.24 2.58917C105.369 2.67766 105.48 2.76469 105.639 2.85592ZM117.484 4.13773C118.853 4.33767 117.719 4.04882 118.03 4.02933C118.338 4.00533 119.562 4.25531 119.43 4.14512C118.62 4.002 117.771 3.87986 116.958 3.7732C117.158 3.89686 117.301 4.01556 117.486 4.13809C117.485 4.13797 117.484 4.13785 117.484 4.13773ZM1.60114 25.6019C1.81418 24.6894 1.81926 25.079 2.1133 23.2449C2.11298 23.2463 2.11267 23.2476 2.11235 23.249C1.62909 24.9543 1.14708 27.1786 0.924271 29.1111C1.21481 27.9528 1.27722 27.0502 1.60114 25.6019ZM93.6102 1.79251C93.213 1.84746 95.036 2.01928 95.4472 1.97302C96.109 1.89595 94.2154 1.70732 93.6102 1.79251ZM18.0712 55.8244C18.079 55.8278 18.0868 55.8311 18.0945 55.8343C18.5824 56.0336 18.5658 55.9098 18.2382 55.6112C17.7025 55.1181 16.3294 54.1631 14.852 53.2951C14.6417 53.1729 16.1249 54.2161 15.6479 53.9657C15.5995 53.9407 14.7657 53.3982 14.5414 53.2919C14.3167 53.186 14.4911 53.3923 14.135 53.1996C13.5081 52.8629 12.2379 51.8849 11.7623 51.6413C11.6982 51.6107 12.4583 52.2583 12.5091 52.2955C13.3199 52.9196 14.2202 53.3398 14.3525 53.4249C15.0359 53.8618 14.8756 53.8841 15.0347 54.0166C15.335 54.2658 15.9344 54.5927 15.9729 54.6213C16.96 55.3625 14.6031 53.8268 14.2643 53.6489C13.3503 53.1731 14.0857 53.7893 12.0057 52.4625C11.8085 52.3375 9.50035 50.7333 12.3499 52.8389C6.48134 49.0724 15.1556 54.9525 16.1685 55.4221C16.6196 55.6797 16.0119 55.1714 16.3019 55.3021C16.8629 55.5544 17.6963 56.0563 17.9283 56.0923C17.9705 56.0989 17.9931 56.0902 17.9912 56.0622C17.9899 56.046 17.9861 56.0292 17.98 56.012C17.8413 55.6148 16.4574 54.9511 15.589 54.3369C15.7232 54.3428 15.7963 54.3116 16.0135 54.3721C15.6855 54.2681 17.9771 55.7826 18.0708 55.825C18.0709 55.8248 18.071 55.8246 18.0712 55.8244ZM4.10918 45.3179C3.27257 43.9772 3.16193 44.1678 2.59344 42.8183C1.88277 41.72 2.98909 44.0315 3.1879 44.2617C3.89165 45.4217 3.72807 45.5148 4.66354 46.551C4.43758 46.1143 4.284 45.7403 4.10918 45.3179ZM14.4769 54.0399C13.5499 53.5589 15.1136 54.567 15.1674 54.6221C15.7472 55.2438 11.0925 52.1689 14.4769 54.0399ZM45.2416 1.16581C45.7688 1.14025 45.4279 1.06567 45.8937 1.0102C46.3536 0.952812 47.9528 0.956577 47.909 0.901001C47.8694 0.840527 44.9356 0.834023 47.8679 0.656624C47.767 0.627899 47.7994 0.601635 47.75 0.573814C46.9468 0.609528 46.1342 0.651287 45.3227 0.700314C45.7728 0.768444 46.2308 0.843204 46.6598 0.913189C46.2112 1.01311 45.9564 0.930401 45.9307 0.931801C45.9307 0.9319 45.9307 0.932003 45.9307 0.932102C45.0806 0.988434 44.0663 1.22688 45.2416 1.16581ZM6.19762 13.2667C6.29448 13.5314 6.82217 12.3408 7.18806 11.9273C7.52644 11.5027 8.15265 11.0801 7.87358 11.189C7.12436 11.706 6.16615 13.2345 6.19788 13.2669C6.19778 13.2669 6.19771 13.2668 6.19762 13.2667ZM1.05376 37.3875C0.830368 36.0885 0.771713 36.2958 0.771515 34.6764C0.715714 34.7407 0.658951 34.8053 0.604568 34.8701C0.669464 36.1649 0.818741 36.0593 0.952469 37.5437C0.982071 37.7875 0.755692 37.2894 0.990341 38.3747C1.00055 38.043 1.02562 37.7123 1.05376 37.3875ZM0.84697 30.8346C0.650192 32.352 0.993057 33.5644 1.11346 30.8731C1.11516 30.8509 1.11687 30.8283 1.11859 30.8053C1.14946 30.3988 1.01059 29.7296 0.847366 30.832C0.847229 30.8329 0.847107 30.8338 0.84697 30.8346ZM31.5563 2.74944C34.0665 2.3418 31.2035 2.73941 30.5402 2.79496C36.3688 1.74428 29.884 2.90374 29.2596 2.81417C28.5598 3.01787 27.2627 3.44334 28.747 3.18393C29.3651 3.079 29.1278 3.05434 29.1646 3.04721C30.304 2.84618 30.1861 2.98363 31.5563 2.74944ZM5.90831 47.3822C5.83781 47.3149 5.88654 47.481 5.65881 47.2685C5.42979 47.0581 4.99994 46.4958 4.91978 46.4749C4.82814 46.4587 5.75931 47.5351 6.10107 47.8025C6.4393 48.0785 6.54765 47.98 5.90831 47.3822ZM1.50096 38.7202C1.19557 37.4746 1.31065 39.5928 1.40489 39.8673C2.07658 42.2461 1.34221 38.6685 1.50096 38.7202ZM25.8798 4.39953C28.2704 3.74448 27.2514 3.76627 25.7558 3.94582C25.4042 3.98991 25.0425 4.04067 24.6825 4.09722C24.4403 4.1882 24.1975 4.28057 23.9643 4.37137C25.0377 3.91619 26.9607 3.2233 22.6272 4.49496C25.0253 3.91829 23.0389 4.48526 23.0286 4.50037C22.8836 4.8381 25.3047 4.16095 25.8269 4.25742C25.9257 4.27449 25.9531 4.31808 25.8771 4.40014C25.878 4.39993 25.8789 4.39973 25.8798 4.39953ZM8.9805 50.2039C10.0277 51.0556 12.9387 52.962 11.6884 51.9165C10.7725 51.3706 9.86891 50.8061 8.9805 50.2039ZM75.6606 1.95963C76.7466 2.09107 77.7464 2.12953 79.0882 2.17887C77.8859 2.00088 78.6804 2.0186 79.0885 2.00387C79.7077 1.98188 78.2119 1.9243 78.2081 1.91562C78.2403 1.79477 79.1951 1.81411 77.0235 1.72941C77.5628 1.70845 78.0932 1.68699 78.6322 1.66673C76.9782 1.59377 76.5915 1.49892 75.5446 1.35995C76.5542 1.63811 75.2185 1.43583 73.9967 1.50674C73.3868 1.54226 75.1116 1.89255 75.6647 1.9598C75.6633 1.95974 75.6619 1.95969 75.6606 1.95963ZM28.9717 3.78892C29.2697 3.68608 29.5455 3.57349 29.8319 3.46918C30.1544 3.40313 30.4858 3.33753 30.8075 3.27464C30.8544 3.30467 30.895 3.33764 30.9484 3.36507C31.3796 3.2992 31.2033 3.27726 31.3304 3.2497C31.3304 3.2499 31.3305 3.2501 31.3305 3.25031C33.1539 2.86292 33.9082 2.75912 35.3672 2.66999C35.3512 2.55499 35.3351 2.43998 35.3191 2.32497C34.9932 2.38164 34.6726 2.43864 34.3457 2.49796C34.1815 2.58536 34.0175 2.67316 33.8553 2.76107C33.4796 2.78365 33.0959 2.80958 32.7188 2.83617C32.4248 2.90671 32.0636 2.99118 31.8098 3.05693C30.2637 2.9916 33.6925 2.63347 33.706 2.50685C33.7098 2.40679 30.2859 2.98573 29.8065 3.1525C29.7374 3.17508 30.5188 3.27049 29.2491 3.38659C29.0512 3.40654 28.8773 2.90096 27.6215 3.59501C27.4438 3.69422 28.1748 3.86978 28.9717 3.78892ZM41.417 2.18873C39.4507 2.00963 46.6304 1.79781 43.5259 1.75834C44.3924 1.54145 44.2331 1.55396 43.3327 1.48395C43.254 1.47738 43.8657 1.38974 43.8127 1.38847C42.9722 1.3728 41.9751 1.49763 41.9544 1.36243C41.729 1.38906 41.518 1.41416 41.2949 1.44168C42.2419 1.48666 40.7582 1.70439 40.1965 1.87168C39.9411 1.94652 40.5411 1.90242 40.3262 1.96696C40.2492 1.98962 39.4012 2.04486 39.373 2.09392C39.3108 2.20358 39.8584 2.28186 40.7528 2.27195C40.7528 2.27205 40.7528 2.27216 40.7528 2.27225C40.9755 2.2443 41.1971 2.2156 41.417 2.18873ZM4.91791 17.2777C4.6308 17.5127 4.04961 18.7243 4.97116 16.3295C4.88548 16.4298 4.79906 16.5351 4.7144 16.6382C4.54465 17.0357 4.3886 17.4281 4.2343 17.8406C4.2599 19.251 3.01648 21.3565 3.82439 20.0033C3.91231 19.855 4.18207 18.8743 3.98228 19.8642C3.9828 19.863 3.98331 19.8617 3.98381 19.8604C4.38332 18.5188 4.38727 18.3264 4.91791 17.2777ZM10.5564 10.0687C12.3179 8.62911 9.69905 10.2179 8.48608 11.3404C7.94078 11.8253 7.67348 12.1914 7.97087 11.9302C7.99672 11.9098 8.21957 11.6781 8.54248 11.4096C9.30432 10.7561 10.6294 9.85485 10.5564 10.0687ZM1.63168 33.4186C1.70099 31.9966 1.54344 31.8818 1.4446 32.0182C1.34819 32.1554 1.35663 33.1621 1.34612 33.29C1.29138 33.7093 1.29904 32.8153 1.22417 33.3601C1.16273 33.5401 1.17288 36.0812 1.22813 36.1966C1.34184 36.833 1.42159 35.8794 1.45993 36.0613C1.5741 36.6495 1.60112 37.4617 1.72171 37.6183C1.96873 37.955 1.54576 36.5001 1.53102 36.2425C1.45297 35.4787 1.5721 35.5359 1.56627 34.9649C1.56682 34.3933 1.52846 34.0211 1.54875 33.5171C1.5563 33.3492 1.62874 33.4912 1.63168 33.4186ZM1.77663 28.6294C1.68867 30.1499 2.457 26.5323 2.51985 26.0994C2.65202 24.807 1.80502 27.8889 1.77663 28.6294ZM36.5177 2.21686C35.1516 2.50974 38.3765 2.18523 39.2932 2.05313C39.1223 2.01886 36.9844 2.11123 36.5177 2.21686ZM25.0547 4.59101C26.2849 4.26715 24.5786 4.39099 23.5438 4.66411C22.9866 4.98499 23.5385 4.80369 24.2206 4.64169C24.8956 4.48354 24.0901 4.85212 25.0547 4.59101ZM6.86751 47.4779C6.60403 47.3581 3.65794 44.0666 5.24072 46.0539C5.32507 46.2407 7.55153 48.4087 7.77573 48.5113C8.16708 48.7801 7.36655 47.9754 6.86751 47.4779ZM19.2503 6.48292C19.8429 6.13 20.4774 5.93678 19.8325 5.95802C19.8316 5.9583 19.8307 5.95857 19.8299 5.95885C21.4459 5.39715 21.6263 5.73316 21.9711 5.62357C23.2043 5.25418 21.9651 5.33387 22.7177 5.0429C20.9302 5.61721 21.3994 5.30945 20.0266 5.71734C19.7164 5.80801 18.5306 6.31031 18.3762 6.4356C18.2193 6.55741 18.9051 6.51839 19.2503 6.48292ZM11.7607 51.345C10.5698 50.4432 9.3309 49.8084 10.987 51.0685C11.8037 51.674 12.4928 51.892 11.7607 51.345ZM110.963 4.28121C110.736 4.19611 110.513 4.11183 110.274 4.0264C110.818 4.06343 111.377 4.10238 111.932 4.14213C111.492 4.11822 111.059 4.0955 110.613 4.07197C111.65 4.19461 112.105 4.35463 110.966 4.28148C110.965 4.28139 110.964 4.2813 110.963 4.28121ZM143.272 18.1828C143.396 18.6191 143.901 19.4085 143.871 19.2926C143.665 18.4403 143.092 17.5556 143.272 18.1828ZM38.6226 2.53466C40.3357 2.37547 39.1315 2.19521 38.074 2.29685C38.7219 2.2807 37.6498 2.63071 38.6226 2.53466ZM134.048 9.88989C133.92 9.80166 133.79 9.71343 133.643 9.61874C134.123 9.8754 134.195 9.93962 134.048 9.88989ZM6.56047 46.798C6.37683 46.6096 5.13701 45.1753 4.97803 44.9744C4.60379 44.5871 5.37254 45.8788 6.02919 46.4799C6.09746 46.5498 6.72429 46.9987 6.55766 46.7951C6.55861 46.7961 6.55954 46.797 6.56047 46.798ZM113.277 4.63025C113.274 4.62705 113.276 4.62445 113.281 4.62247C113.279 4.62497 113.279 4.62782 113.277 4.63025ZM136.633 52.9026C136.644 52.899 136.652 52.8987 136.654 52.9029C136.648 52.9023 136.638 52.9044 136.633 52.9026ZM1.96629 34.7047C2.22638 34.0727 2.12886 32.645 1.95239 33.7743C1.94089 33.8398 1.95903 34.5512 1.96629 34.7047Z" fill="#4141AC"/>
</svg>
