<svg width="255" height="310" viewBox="0 0 255 310" fill="none" xmlns="http://www.w3.org/2000/svg">
<path fill-rule="evenodd" clip-rule="evenodd" d="M105.828 17.3546C127.549 27.9333 127.243 62.0937 148.407 73.7446C175.388 88.5982 215.967 67.3211 237.158 89.6534C258.153 111.779 259.247 150.085 247.567 178.245C236.109 205.87 200.147 211.387 178.222 231.752C151.549 256.526 142.178 307.507 105.828 309.897C70.0597 312.249 41.858 273.927 26.1582 241.751C13.3656 215.533 35.4808 185.356 30.9985 156.538C27.6719 135.15 6.11289 120.762 3.98979 99.2215C0.953736 68.4189 -7.63895 28.916 16.5063 9.50574C40.3715 -9.67936 78.2903 3.94305 105.828 17.3546Z" fill="#E0DFFE"/>
</svg>
