<svg width="317" height="255" viewBox="0 0 317 255" fill="none" xmlns="http://www.w3.org/2000/svg">
<path fill-rule="evenodd" clip-rule="evenodd" d="M153.797 5.59967C182.692 5.75207 211.86 -1.9797 238.258 9.75873C268.612 23.2562 298.993 43.8803 310.177 75.1367C321.461 106.675 319.98 148.399 296.375 172.183C272.568 196.171 238.266 190.234 209 207.152C185.127 220.952 180.899 249.487 153.797 254.603C128.343 259.408 117.634 219.201 94.7089 207.152C65.156 191.619 15.7505 205.627 2.41841 175.04C-10.4679 145.475 31.7726 120.123 43.7187 90.1667C54.4839 63.1716 45.6291 26.5779 68.6863 8.86436C91.7573 -8.85982 124.694 5.44617 153.797 5.59967Z" fill="#E0DFFE"/>
</svg>
