<svg width="322" height="299" viewBox="0 0 322 299" fill="none" xmlns="http://www.w3.org/2000/svg">
<path fill-rule="evenodd" clip-rule="evenodd" d="M164.404 7.30734C191.876 19.6781 192.592 58.7842 213.061 80.9106C227.425 96.4369 250.104 99.8612 264.427 115.425C287.936 140.972 323.814 164.526 321.929 199.212C320.077 233.272 284.783 255.986 255.811 273.932C228.434 290.89 195.66 304.501 164.404 296.786C135.147 289.564 119.432 259.346 100.768 235.661C87.1149 218.336 83.8749 196.288 71.0598 178.332C49.2411 147.762 0.594826 132.052 0.00615476 94.4831C-0.552568 58.8253 37.0373 32.5111 68.5134 15.8201C97.582 0.40576 134.404 -6.20149 164.404 7.30734Z" fill="#E0DFFE"/>
</svg>
