<svg width="702" height="1359" viewBox="0 0 702 1359" fill="none" xmlns="http://www.w3.org/2000/svg">
<g filter="url(#filter0_d_139_8)">
<path d="M98.8092 55.9663C89.426 67.9089 91.5007 85.1968 103.443 94.5801C115.386 103.963 132.674 101.889 142.057 89.9461L120.433 72.9562L98.8092 55.9663ZM599.932 456.456L619.183 476.095L599.932 456.456ZM241.432 481.456L224.777 459.574L241.432 481.456ZM14.4575 1324.61C15.0976 1339.79 27.9179 1351.57 43.0922 1350.93L290.372 1340.5C305.547 1339.86 317.329 1327.04 316.689 1311.86C316.048 1296.69 303.228 1284.91 288.054 1285.55L68.2494 1294.82L58.9761 1075.02C58.3359 1059.84 45.5157 1048.06 30.3414 1048.7C15.167 1049.34 3.3848 1062.16 4.02498 1077.33L14.4575 1324.61ZM120.433 72.9562L142.057 89.9461C152.244 76.9812 169.177 66.756 193.731 60.7432C218.26 54.7361 248.648 53.4123 282.725 56.9088C350.923 63.9062 429.444 89.7454 496.097 128.452C563.36 167.513 614.353 217.187 633.625 269.339C643.043 294.825 645.003 321.08 637.648 348.135C630.228 375.428 612.831 405.305 580.682 436.817L599.932 456.456L619.183 476.095C656.601 439.417 680.176 401.355 690.722 362.564C701.333 323.534 698.254 285.56 685.215 250.275C659.574 180.887 595.988 122.859 523.717 80.8902C450.836 38.5668 364.87 10.0485 288.339 2.19603C250.052 -1.73244 213.015 -0.604391 180.648 7.32169C148.306 15.242 118.872 30.4312 98.8092 55.9663L120.433 72.9562ZM599.932 456.456L580.682 436.817C495.239 520.57 423.996 568.566 368.016 592.837C311.657 617.273 273.5 616.596 251.556 608.133C230.953 600.187 221.597 584.506 221.375 566.752C221.141 548.05 231.337 523.7 258.088 503.339L241.432 481.456L224.777 459.574C186.75 488.517 165.89 528.313 166.379 567.441C166.881 607.517 190.029 643.352 231.765 659.449C272.163 675.029 326.182 670.922 389.895 643.298C453.987 615.51 530.709 562.818 619.183 476.095L599.932 456.456ZM241.432 481.456L258.088 503.339C293.735 476.207 351.743 454.623 404.981 452.21C458.878 449.767 496.851 466.575 511.139 502.559C526.994 542.492 520.57 618.932 448.01 751.936C376.432 883.142 244.054 1062.89 21.6852 1304.85L41.933 1323.46L62.1809 1342.06C285.885 1098.65 421.635 915.126 496.293 778.276C569.969 643.225 587.891 546.826 562.257 482.263C535.054 413.75 465.702 394.402 402.491 397.266C338.622 400.161 269.743 425.348 224.777 459.574L241.432 481.456Z" fill="#ECBB25"/>
</g>
<defs>
<filter id="filter0_d_139_8" x="0" y="0" width="701.126" height="1358.96" filterUnits="userSpaceOnUse" color-interpolation-filters="sRGB">
<feFlood flood-opacity="0" result="BackgroundImageFix"/>
<feColorMatrix in="SourceAlpha" type="matrix" values="0 0 0 0 0 0 0 0 0 0 0 0 0 0 0 0 0 0 127 0" result="hardAlpha"/>
<feOffset dy="4"/>
<feGaussianBlur stdDeviation="2"/>
<feComposite in2="hardAlpha" operator="out"/>
<feColorMatrix type="matrix" values="0 0 0 0 0 0 0 0 0 0 0 0 0 0 0 0 0 0 0.25 0"/>
<feBlend mode="normal" in2="BackgroundImageFix" result="effect1_dropShadow_139_8"/>
<feBlend mode="normal" in="SourceGraphic" in2="effect1_dropShadow_139_8" result="shape"/>
</filter>
</defs>
</svg>
