<?xml version="1.0" encoding="UTF-8"?>
<svg id="Layer_1" data-name="Layer 1" xmlns="http://www.w3.org/2000/svg" viewBox="0 0 288 266.4">
  <defs>
    <style>
      .cls-1 {
        fill: #7664ff;
      }
    </style>
  </defs>
  <path class="cls-1" d="M160.86,112.7c-2.6,2.83-3.37,5.9-3.95,8.31-.81,3.4-2.02,8.52.73,13.2.62,1.06,2.24,3.72,5.56,4.95.25.09,4.8,1.69,8.88-.9,2.56-1.63,3.48-3.99,4.61-6.86.56-1.43,2.08-5.77,1.27-11.4-.43-3-.8-5.54-2.9-7.81-.44-.48-3.62-3.81-8-3.26-3.06.38-4.97,2.45-6.2,3.79Z"/>
  <path class="cls-1" d="M96.85,113.51c-1.75,2.9-2.28,5.52-2.62,7.27-.44,2.29-1.02,5.24-.16,8.87.5,2.13,1.1,4.67,3.44,6.7.42.36,3.18,2.68,7.14,2.36,3.79-.31,6.1-2.81,6.95-3.73,2.73-2.97,3.17-6.38,3.73-10.69.53-4.15.9-7.02-.64-10.22-.51-1.05-2.21-4.59-6.23-5.87-.45-.14-4.07-1.24-7.52.71-2,1.13-2.96,2.72-4.09,4.6Z"/>
  <path class="cls-1" d="M97.83,176.8c3.84,3.55,6.31,5.84,10.45,8.27,10.07,5.92,19.76,6.71,23.23,6.86,2.73.12,13.72.37,25.56-5.73,0,0,7.5-3.87,15.42-12.83.85-.97,3.09-3.59,3.63-7.32.34-2.33-.2-3.56-.39-3.93-1.01-2.08-3.14-2.88-4.19-3.27-.95-.35-3.11-1.17-5.31-.39-1.89.67-2.49,2.05-4.46,4.43-1.15,1.86-2.99,4.4-5.76,6.87-4.32,3.84-8.59,5.43-11.37,6.44-3.59,1.3-9.44,3.34-16.92,2.32-5.46-.74-9.39-2.79-11.98-4.14-2.62-1.36-4.83-2.54-7.09-4.89-1.01-1.05-3.76-3.91-4.89-7.04-.11-.3-.33-.96-.86-1.72-1.15-1.64-2.76-2.32-3.28-2.52-.79-.32-2.35-.95-4.18-.47-2.15.56-3.27,2.28-3.78,3.04-1.49,2.22-1.44,4.53-1.42,5.22.07,1.85.79,4.54,7.57,10.81Z"/>
  <path class="cls-1" d="M253.68,95.21l-70.52-54.14-.08-.08-32.3-24.76c-8.3-6.38-19.99-6.15-27.99.69l-34.22,28.99-.08.15-56.06,47.53-22.6,19.17c-3.68,3.12-1.47,9.14,3.35,9.14h11.02l-.69,20.69-.23,7.08-.38,11.15-.23,8.69-1.92,57.52c-.46,12.38,9.31,22.69,21.69,23.07l197.11,5c12.54.31,22.84-9.77,22.84-22.3v-111.2h10.42c4.95,0,7.08-6.28,3.15-9.29l-22.26-17.08ZM227.07,223.33c-.23,6.23-5.46,11.23-11.77,11.07l-163.11-4.23c-6.31-.08-11.38-5.46-11.15-11.77l3.46-103.82c.08-3.23,1.54-6.31,4-8.38l81.75-69.37c4.08-3.46,10.07-3.61,14.31-.46l81.75,61.52c2.92,2.31,4.62,5.77,4.46,9.54l-3.69,115.89Z"/>
</svg>