<?xml version="1.0" encoding="UTF-8"?>
<svg id="Layer_1" data-name="Layer 1" xmlns="http://www.w3.org/2000/svg" viewBox="0 0 23.98 23.98">
  <defs>
    <style>
      .cls-1 {
        fill: #7664ff;
      }
    </style>
  </defs>
  <path class="cls-1" d="M13.42,10.43c-.21.23-.27.47-.32.66-.06.27-.16.68.06,1.06.05.08.18.3.45.4.02,0,.38.14.71-.07.2-.13.28-.32.37-.55.04-.11.17-.46.1-.91-.03-.24-.06-.44-.23-.62-.04-.04-.29-.3-.64-.26-.25.03-.4.2-.5.3Z"/>
  <path class="cls-1" d="M8.29,10.5c-.14.23-.18.44-.21.58-.04.18-.08.42-.01.71.04.17.09.37.28.54.03.03.25.21.57.19.3-.02.49-.23.56-.3.22-.24.25-.51.3-.85.04-.33.07-.56-.05-.82-.04-.08-.18-.37-.5-.47-.04-.01-.33-.1-.6.06-.16.09-.24.22-.33.37Z"/>
  <path class="cls-1" d="M8.37,15.56c.31.28.51.47.84.66.81.47,1.58.54,1.86.55.22,0,1.1.03,2.04-.46,0,0,.6-.31,1.23-1.03.07-.08.25-.29.29-.59.03-.19-.02-.28-.03-.31-.08-.17-.25-.23-.34-.26-.08-.03-.25-.09-.42-.03-.15.05-.2.16-.36.35-.09.15-.24.35-.46.55-.35.31-.69.43-.91.51-.29.1-.76.27-1.35.19-.44-.06-.75-.22-.96-.33-.21-.11-.39-.2-.57-.39-.08-.08-.3-.31-.39-.56,0-.02-.03-.08-.07-.14-.09-.13-.22-.19-.26-.2-.06-.03-.19-.08-.33-.04-.17.05-.26.18-.3.24-.12.18-.12.36-.11.42,0,.15.06.36.61.86Z"/>
  <path class="cls-1" d="M20.84,9.03l-5.64-4.33h0s-2.58-1.99-2.58-1.99c-.66-.51-1.6-.49-2.24.06l-2.74,2.32h0s-4.49,3.81-4.49,3.81l-1.81,1.53c-.29.25-.12.73.27.73h.88l-.06,1.65-.02.57-.03.89-.02.7-.15,4.6c-.04.99.74,1.81,1.74,1.85l15.77.4c1,.02,1.83-.78,1.83-1.78v-8.9h.83c.4,0,.57-.5.25-.74l-1.78-1.37ZM18.71,19.28c-.02.5-.44.9-.94.89l-13.05-.34c-.5,0-.91-.44-.89-.94l.28-8.31c0-.26.12-.5.32-.67l6.54-5.55c.33-.28.81-.29,1.14-.04l6.54,4.92c.23.18.37.46.36.76l-.3,9.27Z"/>
</svg>